{"title":"28 Weeks Later (2007) 720p MP4","uid":8298956,"size":1099206415,"categoryP":"video","categoryS":"hd___movies","magnet":"?xt=urn:btih:db2ffa7049d8ccb35df5e81cb9e7e581de781850&amp;dn=28+Weeks+Later+%282007%29+720p+MP4&amp;tr=udp%3A%2F%2Ftracker.openbittorrent.com%3A80&amp;tr=udp%3A%2F%2Fopen.demonii.com%3A1337&amp;tr=udp%3A%2F%2Ftracker.coppersurfer.tk%3A6969&amp;tr=udp%3A%2F%2Fexodus.desync.com%3A6969","seeders":1,"leechers":0,"uploader":"Bulbouswhore","files":-1,"time":1364220308,"description":"Six months after the rage virus was inflicted on the population of Great Britain, the US Army helps to secure a small area of London for the survivors to repopulate and start again. But not everything goes to plan.\n\n\n\n\n\nI don't ask for a comment saying &quot;Thanks!&quot;, all I ask is that you seed to help others enjoy the film!\n\n\n\n\n\nSCREENSHOTS:  &lt;a href=&quot;\nhttp://image.bayimg.com/fa68a347f17c415d0dbcc3da2567bd1995271e89.jpg&quot; rel=&quot;nofollow&quot; target=&quot;_NEW&quot;&gt;\nhttp://image.bayimg.com/fa68a347f17c415d0dbcc3da2567bd1995271e89.jpg&lt;/a&gt; &lt;a href=&quot;\nhttp://image.bayimg.com/6e532a2ebae1add30ef5c0673b41226ac943682b.jpg&quot; rel=&quot;nofollow&quot; target=&quot;_NEW&quot;&gt;\nhttp://image.bayimg.com/6e532a2ebae1add30ef5c0673b41226ac943682b.jpg&lt;/a&gt; &lt;a href=&quot;\nhttp://image.bayimg.com/3d4953b7d15f8483f3da09b6fd9a371898e33f86.jpg&quot; rel=&quot;nofollow&quot; target=&quot;_NEW&quot;&gt;\nhttp://image.bayimg.com/3d4953b7d15f8483f3da09b6fd9a371898e33f86.jpg&lt;/a&gt; &lt;a href=&quot;\nhttp://image.bayimg.com/f42718a5b2949b1f0078302ba97e49d5126adc05.jpg&quot; rel=&quot;nofollow&quot; target=&quot;_NEW&quot;&gt;\nhttp://image.bayimg.com/f42718a5b2949b1f0078302ba97e49d5126adc05.jpg&lt;/a&gt; &lt;a href=&quot;\nhttp://image.bayimg.com/e99012327829a9236482155387e358b8d0f0d76f.jpg&quot; rel=&quot;nofollow&quot; target=&quot;_NEW&quot;&gt;\nhttp://image.bayimg.com/e99012327829a9236482155387e358b8d0f0d76f.jpg&lt;/a&gt; &lt;a href=&quot;\nhttp://image.bayimg.com/90f855e2ddb1722bcd938dfdfe7c7d12f9e29081.jpg&quot; rel=&quot;nofollow&quot; target=&quot;_NEW&quot;&gt;\nhttp://image.bayimg.com/90f855e2ddb1722bcd938dfdfe7c7d12f9e29081.jpg&lt;/a&gt; &lt;a href=&quot;\nhttp://image.bayimg.com/4a2bd972d8e35266f704fc1b500b36efd6e51369.jpg&quot; rel=&quot;nofollow&quot; target=&quot;_NEW&quot;&gt;\nhttp://image.bayimg.com/4a2bd972d8e35266f704fc1b500b36efd6e51369.jpg&lt;/a&gt; &lt;a href=&quot;\nhttp://image.bayimg.com/84e98dcc8b2e78bd1d295725163a112162e58771.jpg&quot; rel=&quot;nofollow&quot; target=&quot;_NEW&quot;&gt;\nhttp://image.bayimg.com/84e98dcc8b2e78bd1d295725163a112162e58771.jpg&lt;/a&gt;\n\n\n\n\n\nGeneral\nFormat                         : MPEG-4\nFormat profile                 : Base Media / Version 2\nCodec ID                       : mp42\nFile size                      : 1.02 GiB\nDuration                       : 1h 40mn\nOverall bit rate mode          : Variable\nOverall bit rate               : 1 464 Kbps\n\nVideo\nID                             : 1\nFormat                         : AVC\nFormat/Info                    : Advanced Video Codec\nFormat profile                 : &lt;a class=&quot;__cf_email__&quot; href=&quot;/cdn-cgi/l/email-protection&quot; data-cfemail=&quot;96defff1fed6daa2b8a6&quot;&gt;[email&amp;#160;protected]&lt;/a&gt;&lt;script cf-hash='f9e31' type=&quot;text/javascript&quot;&gt;\n/* &lt;![CDATA[ */!function(){try{var t=&quot;currentScript&quot;in document?document.currentScript:function(){for(var t=document.getElementsByTagName(&quot;script&quot;),e=t.length;e--;)if(t[e].getAttribute(&quot;cf-hash&quot;))return t[e]}();if(t&amp;&amp;t.previousSibling){var e,r,n,i,c=t.previousSibling,a=c.getAttribute(&quot;data-cfemail&quot;);if(a){for(e=&quot;&quot;,r=parseInt(a.substr(0,2),16),n=2;a.length-n;n+=2)i=parseInt(a.substr(n,2),16)^r,e+=String.fromCharCode(i);e=document.createTextNode(e),c.parentNode.replaceChild(e,c)}}}catch(u){}}();/* ]]&gt; */&lt;/script&gt;\nFormat settings, CABAC         : Yes\nFormat settings, ReFrames      : 6 frames\nCodec ID                       : avc1\nCodec ID/Info                  : Advanced Video Coding\nDuration                       : 1h 40mn\nBit rate mode                  : Variable\nBit rate                       : 1 300 Kbps\nWidth                          : 1 280 pixels\nHeight                         : 694 pixels\nDisplay aspect ratio           : 16:9\nFrame rate mode                : Variable\nFrame rate                     : 23.976 fps\nMinimum frame rate             : 23.419 fps\nMaximum frame rate             : 24.390 fps\nColor space                    : YUV\nChroma subsampling             : 4:2:0\nBit depth                      : 8 bits\nScan type                      : Progressive\nBits/(Pixel*Frame)             : 0.061\nStream size                    : 930 MiB (89%)\nWriting library                : x264 core 120\n\nAudio\nID                             : 2\nFormat                         : AAC\nFormat/Info                    : Advanced Audio Codec\nFormat profile                 : LC\nCodec ID                       : 40\nDuration                       : 1h 40mn\nBit rate mode                  : Variable\nBit rate                       : 160 Kbps\nMaximum bit rate               : 300 Kbps\nChannel(s)                     : 2 channels\nChannel positions              : Front: L R\nSampling rate                  : 48.0 KHz\nCompression mode               : Lossy\nStream size                    : 114 MiB (11%)\nLanguage                       : English\n\n\n\n\n\nPlease seed to keep this alive! Enjoy the film!","torrent":{"xt":"urn:btih:db2ffa7049d8ccb35df5e81cb9e7e581de781850","amp;dn":"28+Weeks+Later+%282007%29+720p+MP4","amp;tr":["udp%3A%2F%2Ftracker.openbittorrent.com%3A80","udp%3A%2F%2Fopen.demonii.com%3A1337","udp%3A%2F%2Ftracker.coppersurfer.tk%3A6969","udp%3A%2F%2Fexodus.desync.com%3A6969"],"infoHash":"db2ffa7049d8ccb35df5e81cb9e7e581de781850","infoHashBuffer":{"type":"Buffer","data":[219,47,250,112,73,216,204,179,93,245,232,28,185,231,229,129,222,120,24,80]},"announce":[],"urlList":[]}}